<svg height="21" viewBox="0 0 61 21" width="61" xmlns="http://www.w3.org/2000/svg"><g fill="none" fill-rule="evenodd"><path d="m13.2203 18.572625c0 1.46625.6325 2.099 2.09875 2.099h4.6v-4.16875h-1.0925c-.4025 0-.6325-.23-.6325-.63275v-13.65625c0-1.46625-.6325-2.09875-2.09875-2.09875h-4.6v4.169h1.0925c.4025 0 .6325.23.6325.63225z" fill="#88b5d0"/><path d="m1.81125 20.6715h4.97375v-10.925h2.73125v-3.8815h-2.73125v-.201c0-1.265 1.52375-1.4375 2.50125-1.4375.46 0 .805.0575.805.0575v-4.1975s-.60375-.0865-1.495-.0865c-2.38625 0-6.785.6615-6.785 5.52025v.34475h-1.81125v3.8815h1.81125z" fill="#88b5d0"/><path d="m36.5278 13.066275c0-4.3905-3.55925-7.95-7.95-7.95s-7.95 3.5595-7.95 7.95c0 4.39075 3.55925 7.95025 7.95 7.95025s7.95-3.5595 7.95-7.95025m-4.32725 0c0 2.001-1.622 3.62275-3.62275 3.62275s-3.62275-1.62175-3.62275-3.62275c0-2.00075 1.622-3.6225 3.62275-3.6225s3.62275 1.62175 3.62275 3.6225" fill="#ff7500"/><path d="m41.26925 20.48425h5.60675l1.63425-6.86725c.19725-.8075.28175-1.5865.28175-1.5865h.056s.0845.779.28175 1.5865l1.63425 6.86725h5.5505l2.92975-10.21375c.141-.375.28175-.46175.62-.46175h.4225v-4.18375h-3.606c-1.071 0-1.6625.433-1.85975 1.414l-1.465 7.35725c-.169.808-.169 1.55825-.169 1.55825h-.0565s-.02825-.75025-.22525-1.55825l-2.0005-8.71325h-4.16975l-2.00025 8.71325c-.19725.808-.25375 1.55825-.25375 1.55825h-.05625s0-.75025-.169-1.55825l-1.46475-7.35725c-.19725-.981-.8175-1.414-1.888-1.414h-3.60625v4.18375h.4225c.33825 0 .50725.08675.62.46175z" fill="#88b5d0"/></g></svg>